# 3ds Max Wavefront OBJ Exporter v0.97b - (c)2007 guruware
# File Created: 19.04.2022 15:14:44

#
# object Hex
#

v  -0.5000 0.5000 0.8660
v  0.5000 0.5000 0.8660
v  1.0000 0.5000 -0.0000
v  0.5000 0.5000 -0.8660
v  -0.5000 0.5000 -0.8660
v  -1.0000 0.5000 -0.0000
v  -1.0000 -0.5000 -0.0000
v  -0.5000 -0.5000 -0.8660
v  0.5000 -0.5000 -0.8660
v  -0.5000 -0.5000 0.8660
v  1.0000 -0.5000 -0.0000
v  0.5000 -0.5000 0.8660
# 12 vertices

vn 0.0000 1.0000 -0.0000
vn 0.0000 -1.0000 -0.0000
vn 0.0000 0.0000 1.0000
vn 0.8660 0.0000 0.5000
vn 1.0000 0.0000 -0.0000
vn 0.0000 0.0000 -1.0000
vn -0.8660 0.0000 -0.5000
vn -1.0000 0.0000 -0.0000
vn -0.8660 0.0000 0.5000
vn 0.8660 0.0000 -0.5000
# 10 vertex normals

vt 0.7503 0.6256 0.0000
vt 0.7503 0.8751 0.0000
vt 0.5342 0.9999 0.0000
vt 0.3181 0.8751 0.0000
vt 0.3181 0.6256 0.0000
vt 0.5342 0.5008 0.0000
vt 0.2166 0.0011 0.0000
vt 0.4327 0.1259 0.0000
vt 0.4327 0.3754 0.0000
vt 0.0005 0.1259 0.0000
vt 0.2166 0.5002 0.0000
vt 0.0005 0.3754 0.0000
vt 0.9998 0.6256 0.0000
vt 0.9998 0.8751 0.0000
vt 0.2496 0.5677 0.0000
vt 0.2496 0.7838 0.0000
vt 0.0001 0.7838 0.0000
vt 0.0001 0.5677 0.0000
vt 0.6822 0.3754 0.0000
vt 0.6822 0.1259 0.0000
vt 0.7503 0.1934 0.0000
vt 0.9998 0.1934 0.0000
vt 0.9998 0.4095 0.0000
vt 0.7503 0.4095 0.0000
vt 0.2496 0.9999 0.0000
vt 0.0001 0.9999 0.0000
# 26 texture coords

g Hex
s 2
f 1/1/1 2/2/1 3/3/1 
f 1/1/1 3/3/1 4/4/1 
f 4/4/1 5/5/1 6/6/1 
f 1/1/1 4/4/1 6/6/1 
s 4
f 7/7/2 8/8/2 9/9/2 
f 10/10/2 7/7/2 9/9/2 
f 10/10/2 9/9/2 11/11/2 
f 10/10/2 11/11/2 12/12/2 
s 8
f 1/1/3 10/13/3 12/14/3 
f 12/14/3 2/2/3 1/1/3 
s 16
f 12/15/4 11/16/5 3/17/5 
f 3/17/5 2/18/4 12/15/4 
s 32
f 4/19/6 9/9/6 8/8/6 
f 8/8/6 5/20/6 4/19/6 
s 64
f 5/21/7 8/22/7 7/23/8 
f 7/23/8 6/24/8 5/21/7 
f 10/13/9 1/1/9 6/24/8 
f 7/23/8 10/13/9 6/24/8 
s 16
f 11/16/5 9/25/10 4/26/10 
f 4/26/10 3/17/5 11/16/5 
# 20 faces

